<?xml version="1.0" encoding="utf-8"?>
<!-- Generator: Adobe Illustrator 21.0.0, SVG Export Plug-In . SVG Version: 6.00 Build 0)  -->
<svg version="1.1" id="Layer_1" xmlns="http://www.w3.org/2000/svg" xmlns:xlink="http://www.w3.org/1999/xlink" x="0px" y="0px" width="520" height="280" viewBox="0 0 520 280" style="enable-background:new 0 0 520 280;" xml:space="preserve">
<path id="Mhcsss" fill="none" stroke="#000000" stroke-miterlimit="10" d="M21,55.5h44c0,0,7-39.5,38-24.5s10,50.8,39,50.8s6-27.3,39-27.3s55,0,55,0"/>
<path id="Mhscs" fill="none" stroke="#000000" stroke-miterlimit="10" d="M27,75.5h44s14,64,39,50.8c25.7-13.5,6-27.3,39-27.3s55,0,55,0"/>
<path id="Mhqttt" fill="none" stroke="#000000" stroke-miterlimit="10" d="M33,135.5h44q0,0,7-39.5t10,50.8t6-27.3t39-27.3"/>
<path id="Mhtttt" fill="none" stroke="#000000" stroke-miterlimit="10" d="M33,175.5h44t7-39.5t10,50.8t6-27.3t39-27.3"/>

<path id="MHCSSS" fill="none" stroke="#000000" stroke-miterlimit="10" d="M21,55.5H65C65,55.5,72,16,103,31S113,81.8,142,81.8S148,54.5,181,54.5S236,54.5,236,54.5"/>
<path id="MHSCS" fill="none" stroke="#000000" stroke-miterlimit="10" d="M27,75.5H71S85,139.5,110,126.3C135.7,112.8,116,99,149,99S204,99,204,99"/>
<path id="MHQTTT" fill="none" stroke="#000000" stroke-miterlimit="10" d="M33,135.5H77Q77,135.5 84,96T94,146.8T100,119.5T139,92.2"/>
<path id="MHTTTT" fill="none" stroke="#000000" stroke-miterlimit="10" d="M33,175.5H77T84,136T94,186.8T100,159.5T139,132.2"/>

<ellipse id="rotated" transform="matrix(0.9543 -0.2987 0.2987 0.9543 -5.1706 117.1692)" fill="none" stroke="#000000" stroke-miterlimit="10" cx="380.7" cy="75.5" rx="79" ry="32.7"/>

<path id="hv" fill="none" stroke="#000000" stroke-miterlimit="10" d="M309,196c0-36,71.7-38,71.7,0s9.3,41,33.3,41s24-97,0-97s-105,0-105,0V196z"/>
</svg>
